# xmcd
#
# Track frame offsets: 
#        150
#        30306
#        51619
#        76121
#        97664
#        119739
#        149578
#        172036
#        201596
#        231534
#        266087
#        284397
#
# Disc length: 4137 seconds
#
# Revision: 2
# Processed by: cddbd v1.5.2PL0 Copyright (c) Steve Scherf et al.
# Submitted via: ExactAudioCopy v0.99pb4
#
DISCID=b810270c
DTITLE=Lars Danielsson - Lars Danielsson Signature Edition CD1
DYEAR=2010
DGENRE=Jazz
TTITLE0=Eden
TTITLE1=Song For E. (cello version)
TTITLE2=December
TTITLE3=Pasodoble
TTITLE4=Afterglow
TTITLE5=Suffering
TTITLE6=The Linden
TTITLE7=Folk Song (To All Children)
TTITLE8=Cornelia
TTITLE9=Ironside
TTITLE10=Daughter's Joy
TTITLE11=Falling Down
EXTD=YEAR: 2010
EXTT0=
EXTT1=
EXTT2=
EXTT3=
EXTT4=
EXTT5=
EXTT6=
EXTT7=
EXTT8=
EXTT9=
EXTT10=
EXTT11=
PLAYORDER=
